PathFileType	4	(X/Y/Z)	/home/abdul/Desktop/myosuite/custom_workspace/IK/output/S19_12_2.trc
DataRate	CameraRate	NumFrames	NumMarkers	Units	OrigDataRate	OrigDataStartFrame	OrigNumFrames
200.0	200.0	32	3	mm	200.0	1106	1474
Frame#	Time	V_Shoulder			V_Elbow			V_Wrist		
		X1	Y1	Z1	X2	Y2	Z2	X3	Y3	Z3

1106	5.525	-99.88220931179696	632.6888586269151	314.0296911735591				-73.07856569111954	190.75629299283128	33.2897317148973
1107	5.53	-99.86672488693296	632.669286266683	314.0425505702738				-73.03764390243296	190.85085519856528	33.18902598212164
1108	5.535	-99.85150082369897	632.6503241034592	314.0555862691051				-72.99076868028291	190.9614065585423	33.09970487066159
1109	5.54	-99.83652950211693	632.6320170715188	314.06881017642576				-72.93790205947398	191.0886507320496	33.02252801858554
1110	5.545	-99.82180312022287	632.6144128117851	314.08223449147596				-72.8790376183299	191.23328296103512	32.958256921574446
1111	5.55	-99.80731371661356	632.5975616774863	314.0958716982731				-72.81420198067265	191.3959879293405	32.907652485035335
1112	5.555	-99.79305319425485	632.5815167349425	314.10973455620973				-72.74345626438631	191.57743759383644	32.8714725006939
1113	5.56	-99.77901334554726	632.5663337593506	314.1238360892841				-72.66689746940506	191.77828899481614	32.850469055430466
1114	5.565	-99.76518587863956	632.5520712254466	314.1381895739094				-72.58465979789916	191.9991820533677	32.84538588059184
1115	5.57	-99.75156244497714	632.5387902929327	314.152808525255				-72.4969158993963	192.24073736378688	32.85695565045789
1116	5.575	-99.73813466806729	632.526554786573	314.1677066820776				-72.40387803356862	192.50355398940374	32.885897238963295
1117	5.58	-99.7248941734393	632.5154311708628	314.1828979900048				-72.30579914344102	192.78820727047406	32.93291294416949
1118	5.585	-99.71183261977212	632.505488519197	314.19839658323883				-72.20297383183394	193.0952466530316	32.99868569034635
1119	5.59	-99.6989417311582	632.4967984774679	314.21421676465616				-72.09573923394682	193.4251935478006	33.08387621785561
1120	5.595	-99.68621333046663	632.4894352220391	314.2303729842826				-71.98447577911645	193.77853922843377	33.18912027132477
1121	5.6	-99.67363937376486	632.4834754120517	314.24687981613107				-71.86960783494956	194.15574277846073	33.31502579685994
1122	5.605	-99.66121198575216	632.4789981360335	314.2637519333947				-71.75160422723133	194.55722909640838	33.462170159265995
1123	5.61	-99.64892349615415	632.4760848527927	314.2810040819962				-71.6309786292526	194.98338696857945	33.63109739041937
1124	5.615	-99.63676647702209	632.4748193265929	314.2986510525004				-71.5082898144776	195.43456721895643	33.82231548007256
1125	5.62	-99.6247337808764	632.4752875566179	314.31670765040366				-71.38414176679291	195.9110809456207	34.036293720455525
1126	5.625	-99.6128185796282	632.4775777007499	314.3351886648211				-71.25918364293523	196.41319785295312	34.273460116078326
1127	5.63	-99.60101440420893	632.4817799936937	314.3541088356009				-71.13410958209248	196.94114468870032	34.53419887012779
1128	5.635	-99.58931518483236	632.4879866595024	314.37348281890127				-71.00965835810645	197.4951037947578	34.81884795878907
1129	5.64	-99.57771529180904	632.4962918185611	314.3933251512721				-70.886612870178	198.07521178023126	35.127696804707874
1130	5.645	-99.5662095768289	632.5067913891121	314.413650212294				-70.76579946848418	198.6815583249945	35.46098406064169
1131	5.65	-99.55479341462296	632.5195829834096	314.4344721858302				-70.64808711166076	199.31418512156512	35.81889551412626
1132	5.655	-99.54346274491077	632.5347657986082	314.45580501995795				-70.53438635368218	199.9730849626664	36.20156212370776
1133	5.66	-99.53221411453639	632.5524405025058	314.4776623856512				-70.42564815828094	200.65820098134253	36.60905819696089
1134	5.665	-99.5210447196918	632.5727091142702	314.50005763429436				-70.32286253968908	201.36942604993783	37.04139972012867
1135	5.67	-99.50995244812225	632.5956748802977	314.52300375411295				-70.22705702915306	202.10660234364917	37.49854284878223
1136	5.675	-99.49893592120543	632.6214421453601	314.5465133256146				-70.13929496736687	202.86952107371008	37.98038256840854
1137	5.68	-99.48799453579261	632.6501162192121	314.5705984761414				-70.06067362368518	203.65792239457141	38.48675153329257
